# xmcd
#
# Track frame offsets:
# 150
# 13027
# 29961
# 45259
# 62765
#
# Disc length: 982 seconds
#
#
# Revision: 0
# Processed by: cddbd v1.4PL0 Copyright (c) Steve Scherf et al.
# Submitted via: FreeRIP 2.00 
#
DISCID=3c03d405
DTITLE=Kids Near Water - Extended Player One
DYEAR=2000
DGENRE=Alt. Rock
TTITLE0=Some Free Advice
TTITLE1=When It Comes To You, I Step On Cracks
TTITLE2=Post Scriptum
TTITLE3=Telegram
TTITLE4=Gone
EXTD=
EXTT0=
EXTT1=
EXTT2=
EXTT3=
EXTT4=
PLAYORDER=
